<?xml version='1.0' encoding='ASCII' standalone='yes'?>
<svg xmlns="http://www.w3.org/2000/svg" xmlns:xlink="http://www.w3.org/1999/xlink" version="1.1" width="1920.0px" viewBox="0 0 1920.0 1080.0" height="1080.0px">
  <g>
    <g>
      <defs/>
      <rect fill="#E60000" height="1080px" width="1920px" x="0" y="0"/>
    </g>
    <g transform="translate(744.75, 486.75) scale(1 1)"><g>
    <g transform="translate(0, 0) scale(1.5 1.5)"><title>vodafone/logo/vodafone_secundario</title>
    <g id="vodafone/logo/vodafone_secundario" stroke="none" stroke-width="1" fill="none" fill-rule="evenodd">
        <path d="M35.3855723,0.752518925 C40.6518578,0.752518925 45.6492353,1.89587782 50.1390029,3.94603431 L50.5134056,4.12051893 L50.6357649,4.17754913 C62.5073367,9.82288829 70.7063702,21.8542617 70.7063702,35.7857663 C70.7063702,55.1350782 54.8903334,70.8190136 35.3855723,70.8190136 C15.8740738,70.8190136 0.0614056308,55.1350782 0.0614056308,35.7857663 C0.0614056308,16.4364544 15.8740738,0.752518925 35.3855723,0.752518925 Z M47.9710278,3.84309245 C40.6205289,3.86658536 32.5154416,6.98399306 26.5966393,11.842204 C20.532983,16.8273833 15.7864876,25.2206611 15.8166615,33.9480661 C15.860599,47.1394119 25.9565867,55.3556022 35.6618055,55.322291 C47.6442641,55.2820942 54.7320046,45.5255771 54.7051316,36.6177433 C54.6747367,27.7132507 49.7934934,21.2746177 39.0372409,18.6751073 C39.01366,18.5648453 38.9934478,18.3309562 38.9934478,18.1037496 C38.9702472,11.4862506 43.9199293,5.63206046 50.2042689,4.18797124 L50.5134056,4.12051893 L50.3213919,4.06313898 C49.7103876,3.90213546 48.8229715,3.8401789 47.9710278,3.84309245 Z M122.739279,24.1013346 C124.804291,24.1013346 126.606544,24.4822397 128.139302,25.2407087 C129.672059,25.9991777 130.952164,27.0082421 131.989723,28.2612195 C133.023914,29.5175381 133.798714,30.9409204 134.314125,32.5313664 C134.829536,34.1218123 135.092294,35.7523536 135.092294,37.409625 C135.092294,39.0735789 134.829536,40.7108027 134.314125,42.3146137 C133.798714,43.9284486 133.030651,45.3685372 132.013304,46.6415623 C130.999326,47.9145873 129.715852,48.9370168 128.166251,49.7155334 C126.613281,50.49405 124.804291,50.8816377 122.739279,50.8816377 C120.670898,50.8816377 118.861907,50.49405 117.312306,49.7155334 C115.762705,48.9370168 114.479231,47.9145873 113.461885,46.6415623 C112.447906,45.3685372 111.676475,43.9284486 111.164433,42.3146137 C110.642284,40.7108027 110.386263,39.0735789 110.386263,37.409625 C110.386263,35.7523536 110.642284,34.1218123 111.164433,32.5313664 C111.676475,30.9409204 112.447906,29.5175381 113.461885,28.2612195 C114.479231,27.0082421 115.762705,25.9991777 117.312306,25.2407087 C118.861907,24.4822397 120.670898,24.1013346 122.739279,24.1013346 Z M161.634265,14.9228577 L161.634265,50.3002562 L155.540291,50.3002562 L155.270795,48.3355877 C154.667798,49.0071835 153.866048,49.6019301 152.872282,50.1131449 C151.878516,50.6243597 150.70284,50.8816377 149.355361,50.8816377 C147.580057,50.8816377 146.013613,50.5107564 144.666134,49.7689938 C143.315286,49.0272312 142.176666,48.0348731 141.253643,46.7986021 C140.330619,45.5623311 139.626562,44.128925 139.148206,42.5050663 C138.669851,40.8778663 138.430674,39.1804997 138.430674,37.4129662 C138.430674,35.7490123 138.676589,34.1251536 139.175156,32.5347077 C139.673723,30.9409204 140.428312,29.5175381 141.438921,28.2645608 C142.452899,27.0082421 143.722898,25.9991777 145.252287,25.2407087 C146.778307,24.4788985 148.573823,24.0979933 150.635466,24.0979933 C151.986314,24.0979933 153.438223,24.3452475 155.004668,24.8330734 L155.004668,14.9228577 L161.634265,14.9228577 Z M177.19765,24.1013346 C178.625978,24.1013346 179.926295,24.2851046 181.101971,24.6559859 C182.277646,25.0268672 183.294993,25.61159 184.150642,26.4034717 C185.006292,27.1986947 185.673294,28.2044179 186.155018,29.4273238 C186.636741,30.6435471 186.875919,32.1170485 186.875919,33.8478279 L186.875919,50.273526 L180.832475,50.273526 L180.566348,48.3656591 C179.852184,49.1508583 178.939267,49.7689938 177.830965,50.2133831 C176.722663,50.6577724 175.506563,50.8816377 174.182665,50.8816377 C173.074363,50.8816377 172.006486,50.6978677 170.989139,50.3236451 C169.968424,49.9561051 169.065613,49.4248427 168.277338,48.7331991 C167.492431,48.0482382 166.855747,47.1962136 166.374023,46.1904904 C165.892299,45.181426 165.649753,44.0420519 165.649753,42.7690268 C165.649753,41.4960018 165.899037,40.3733341 166.400973,39.4010237 C166.902909,38.4287132 167.580017,37.6067601 168.439035,36.9351642 C169.301422,36.2635683 170.285082,35.7155996 171.393383,35.2912579 C172.501685,34.8669162 173.663886,34.546154 174.879985,34.3356538 C175.739003,34.1619076 176.67887,34.0249154 177.699586,33.9380423 C178.716932,33.8511692 179.565844,33.7709787 180.246321,33.7008119 L180.246321,33.3265894 C180.246321,31.9132309 179.879133,30.9075077 179.144757,30.3060786 C178.410381,29.7046494 177.399772,29.4039349 176.10956,29.4039349 C175.354972,29.4039349 174.640808,29.4941492 173.960331,29.6712367 C173.279854,29.8449829 172.67012,30.0655069 172.131128,30.3328088 C171.592136,30.5967693 171.120519,30.8607299 170.709537,31.1280317 C170.295188,31.3919923 169.965055,31.632564 169.715772,31.8430642 L167.522749,27.2287661 C167.80572,26.9815119 168.243651,26.6807974 168.833173,26.3266224 C169.419326,25.9757888 170.130121,25.6282964 170.972296,25.2908278 C171.807733,24.9567005 172.754337,24.6760336 173.802002,24.4454857 C174.853036,24.2149379 175.988287,24.1013346 177.19765,24.1013346 Z M219.606188,24.1013346 C221.674569,24.1013346 223.473453,24.4822397 225.00958,25.2407087 C226.542337,25.9991777 227.822442,27.0082421 228.856633,28.2612195 C229.890823,29.5175381 230.665623,30.9409204 231.184403,32.5313664 C231.699814,34.1218123 231.959203,35.7523536 231.959203,37.409625 C231.959203,39.0735789 231.699814,40.7108027 231.184403,42.3146137 C230.665623,43.9284486 229.900929,45.3685372 228.883582,46.6415623 C227.869604,47.9145873 226.582762,48.9370168 225.036529,49.7155334 C223.483559,50.49405 221.674569,50.8816377 219.606188,50.8816377 C217.537808,50.8816377 215.728817,50.49405 214.179216,49.7155334 C212.629615,48.9370168 211.346141,47.9145873 210.332163,46.6415623 C209.314816,45.3685372 208.546753,43.9284486 208.031342,42.3146137 C207.512562,40.7108027 207.256541,39.0735789 207.256541,37.409625 C207.256541,35.7523536 207.512562,34.1218123 208.031342,32.5313664 C208.546753,30.9409204 209.314816,29.5175381 210.332163,28.2612195 C211.346141,27.0082421 212.629615,25.9991777 214.179216,25.2407087 C215.728817,24.4822397 217.537808,24.1013346 219.606188,24.1013346 Z M275.092012,24.0979933 C276.732568,24.0979933 278.248482,24.3652952 279.636386,24.8965576 C281.027658,25.4244787 282.226914,26.2497732 283.24763,27.3624171 C284.261608,28.475061 285.063358,29.9184909 285.649511,31.682683 C286.239033,33.4502165 286.535479,35.5552185 286.535479,37.9943477 L286.535479,39.160452 L269.799788,39.160452 C269.941273,41.3189144 270.62175,42.8759476 271.83785,43.8282104 C273.05395,44.7838145 274.627132,45.2582752 276.560764,45.2582752 C277.456838,45.2582752 278.299012,45.181426 279.083919,45.0210448 C279.872194,44.8606637 280.569515,44.6601874 281.17588,44.4129332 C281.785615,44.165679 282.304394,43.9150835 282.735588,43.6678293 C283.163412,43.4205751 283.486807,43.1933685 283.699035,42.979527 L285.464233,48.3355877 C285.214949,48.5126751 284.814074,48.7532468 284.261608,49.0539614 C283.709141,49.3546759 283.021927,49.6353429 282.203333,49.9026447 C281.38474,50.1666053 280.421292,50.3971531 279.316359,50.5909469 C278.208058,50.7813995 276.998695,50.8816377 275.681534,50.8816377 C274.003923,50.8816377 272.410528,50.6176771 270.894614,50.0864147 C269.3787,49.5551523 268.051433,48.7331991 266.909445,47.6205552 C265.767456,46.5079113 264.857908,45.1179418 264.184168,43.4573291 C263.50706,41.7967164 263.17019,39.8153415 263.17019,37.519887 C263.17019,35.3614246 263.48011,33.4502165 264.103319,31.7896038 C264.726528,30.1289911 265.582178,28.732339 266.670267,27.5996474 C267.754988,26.4702972 269.021618,25.6049075 270.46679,25.0001371 C271.911961,24.4020492 273.451456,24.0979933 275.092012,24.0979933 Z M89.7732006,24.7361765 L96.5105965,41.7098433 L103.032396,24.7361765 L109.769792,24.7361765 L99.2897723,50.3002562 L93.515824,50.3002562 L82.7157784,24.7361765 L89.7732006,24.7361765 Z M202.280975,14.2345555 C203.884475,14.2345555 205.21511,14.3849127 206.266144,14.6856273 C207.317178,14.9863419 207.930281,15.1901595 208.108822,15.2970803 L207.360971,20.7600616 C207.148743,20.6531409 206.727656,20.5027836 206.104447,20.3089898 C205.481238,20.1151959 204.652538,20.018299 203.621716,20.018299 C202.691956,20.018299 201.917155,20.2889421 201.293946,20.8369109 C200.670737,21.3882209 200.357448,22.2769996 200.357448,23.5166118 L200.357448,24.7361765 L205.919168,24.7361765 L205.919168,30.0387767 L200.411347,30.0387767 L200.411347,50.3002562 L193.78175,50.3002562 L193.78175,30.0387767 L190.359153,30.0387767 L190.359153,24.7361765 L193.78175,24.7361765 L193.78175,23.3562307 C193.78175,21.6956181 193.993978,20.2889421 194.421802,19.1428855 C194.852996,17.9934876 195.445886,17.0545899 196.21395,16.3295336 C196.982013,15.6078187 197.881455,15.0765563 198.915645,14.7390877 C199.946467,14.4016191 201.071612,14.2345555 202.280975,14.2345555 Z M249.917732,24.0979933 C251.271949,24.0979933 252.518367,24.3051523 253.660356,24.7094463 C254.802344,25.1170816 255.782635,25.7619473 256.601229,26.6473846 C257.423191,27.5294807 258.053138,28.6788786 258.501175,30.0922371 C258.945843,31.5089369 259.168177,33.2063035 259.168177,35.1843371 L259.168177,50.3002562 L252.538579,50.3002562 L252.538579,35.7155996 C252.538579,33.7676374 252.127598,32.2674058 251.309004,31.204881 C250.487042,30.1456975 249.348422,29.6144351 247.889776,29.6144351 C246.852217,29.6144351 245.898876,29.8817369 245.026383,30.409658 C244.150521,30.9409204 243.395933,31.5256432 242.752512,32.1604851 L242.752512,50.3002562 L236.126283,50.3002562 L236.126283,24.7361765 L242.166358,24.7361765 L242.486385,26.7509641 C243.520575,25.9022808 244.686144,25.2473913 245.98983,24.7896369 C247.290148,24.3318825 248.600571,24.0979933 249.917732,24.0979933 Z M180.30022,38.3151099 C179.582688,38.3518639 178.848312,38.4086656 178.097092,38.49888 C177.339135,38.5890943 176.624971,38.7026976 175.941125,38.8430311 C174.50606,39.1270393 173.512294,39.6115239 172.95309,40.3031674 C172.397255,40.9914696 172.117653,41.743256 172.117653,42.5585266 C172.117653,43.4038687 172.434311,44.0854884 173.060889,44.5967032 C173.690835,45.1112592 174.576803,45.3685372 175.725529,45.3685372 C176.587915,45.3685372 177.423352,45.1914498 178.228471,44.8372748 C179.03359,44.4830999 179.724173,44.0420519 180.30022,43.5107895 L180.30022,38.3151099 Z M151.440585,29.6144351 C150.305334,29.6144351 149.33178,29.8282765 148.516555,30.2559595 C147.70133,30.6803011 147.024222,31.2550001 146.495337,31.9833976 C145.963082,32.7117951 145.562207,33.5237245 145.29608,34.4325507 C145.029953,35.3380357 144.898574,36.2669096 144.898574,37.2258549 C144.898574,38.2883798 145.016478,39.3108093 145.24555,40.2831197 C145.474621,41.2621127 145.831703,42.1107961 146.30669,42.8391936 C146.788413,43.5675911 147.39141,44.1523139 148.119049,44.5967032 C148.846688,45.0410925 149.702337,45.2616165 150.696103,45.2616165 C151.511328,45.2616165 152.346765,45.0410925 153.195677,44.5967032 C154.047957,44.1523139 154.650954,43.6310753 155.004668,43.0263049 L155.004668,30.3595389 C153.727931,29.8616893 152.538781,29.6144351 151.440585,29.6144351 Z M122.739279,29.6144351 C121.775831,29.6144351 120.937025,29.821594 120.22623,30.225888 C119.512066,30.6335233 118.9057,31.1848334 118.407133,31.8764769 C117.908566,32.5681204 117.53464,33.3934148 117.285357,34.3523602 C117.036073,35.3113055 116.911431,36.3237112 116.911431,37.3862361 C116.911431,38.4855149 117.036073,39.5046031 117.285357,40.4468421 C117.53464,41.3857398 117.901828,42.2110343 118.380184,42.9193841 C118.861907,43.627734 119.468273,44.1890679 120.19928,44.5967032 C120.930288,45.0043385 121.775831,45.2081561 122.739279,45.2081561 C123.699358,45.2081561 124.538163,45.0043385 125.252327,44.5967032 C125.963123,44.1890679 126.569488,43.627734 127.071424,42.9193841 C127.569992,42.2110343 127.943917,41.3857398 128.193201,40.4468421 C128.439116,39.5046031 128.567126,38.4855149 128.567126,37.3862361 C128.567126,36.3237112 128.439116,35.3113055 128.193201,34.3523602 C127.943917,33.3934148 127.569992,32.5681204 127.071424,31.8764769 C126.569488,31.1848334 125.963123,30.6335233 125.252327,30.225888 C124.538163,29.821594 123.699358,29.6144351 122.739279,29.6144351 Z M219.606188,29.6144351 C218.642741,29.6144351 217.807303,29.821594 217.093139,30.225888 C216.382344,30.6335233 215.775979,31.1848334 215.277411,31.8764769 C214.778844,32.5681204 214.40155,33.3934148 214.155635,34.3523602 C213.902982,35.3113055 213.778341,36.3237112 213.778341,37.3862361 C213.778341,38.4855149 213.902982,39.5046031 214.155635,40.4468421 C214.40155,41.3857398 214.768738,42.2110343 215.250462,42.9193841 C215.728817,43.627734 216.335182,44.1890679 217.069559,44.5967032 C217.797197,45.0043385 218.642741,45.2081561 219.606188,45.2081561 C220.566267,45.2081561 221.408442,45.0043385 222.119237,44.5967032 C222.833401,44.1890679 223.436398,43.627734 223.938334,42.9193841 C224.436901,42.2110343 224.810826,41.3857398 225.06011,40.4468421 C225.309394,39.5046031 225.437404,38.4855149 225.437404,37.3862361 C225.437404,36.3237112 225.309394,35.3113055 225.06011,34.3523602 C224.810826,33.3934148 224.436901,32.5681204 223.938334,31.8764769 C223.436398,31.1848334 222.833401,30.6335233 222.119237,30.225888 C221.408442,29.821594 220.566267,29.6144351 219.606188,29.6144351 Z M275.068431,29.3504745 C273.919705,29.3504745 272.828247,29.7748162 271.787319,30.6234995 C270.746392,31.4721828 270.136657,32.7452079 269.958116,34.4425745 L279.798083,34.4425745 C279.723972,33.5571372 279.535325,32.7886444 279.232142,32.1370962 C278.92559,31.4788654 278.551665,30.9509443 278.103628,30.543309 C277.655591,30.1356737 277.170499,29.8383004 276.651719,29.6411652 C276.13294,29.4473714 275.604054,29.3504745 275.068431,29.3504745 Z" id="Combined-Shape" fill="#FFFFFF"/>
    </g>
</g>
  </g>
</g>
    <g transform="translate(180.0, -240.0) scale(1 1)"><g>
    <g transform="translate(0, 0) scale(13 13)" opacity="0.1"><title>vodafone/icon/vodafone_blanco</title>
    <g id="vodafone/icon/vodafone_blanco" stroke="none" stroke-width="1" fill="none" fill-rule="evenodd">
        <g id="Group" transform="translate(15.000000, 16.000000)" fill="#FFFFFF">
            <path d="M45.0021458,-8.51851073e-14 C51.2939042,-8.51851073e-14 57.2843775,1.26289584 62.7227606,3.54364865 C62.1362375,3.47658391 61.4795465,3.44874124 60.8389495,3.45098039 C51.6789984,3.48090311 41.578704,7.4515194 34.2028863,13.6393823 C26.6465563,19.9889638 20.7316291,30.6794119 20.7692308,41.7954352 C20.8239843,58.5971427 33.4052737,69.062036 45.4995997,69.0196078 C60.4317473,68.9684095 69.2642575,56.5416147 69.2307692,45.1957808 C69.1928922,33.8542026 63.1100465,25.6533692 49.7059567,22.3423944 C49.676571,22.2019546 49.6513832,21.904052 49.6513832,21.6146609 C49.6225486,13.2085148 55.7577054,5.76940332 63.5592403,3.90510454 C79.1524415,10.8164702 90,26.1690565 90,44 C90,68.3017644 69.8507463,88 45.0021458,88 C20.1449621,88 3.41261177e-13,68.3017644 3.41261177e-13,44 C3.41261177e-13,19.6982356 20.1449621,-8.51851073e-14 45.0021458,-8.51851073e-14 Z" id="Combined-Shape"/>
        </g>
    </g>
</g>
  </g>
</g>
  </g>
</svg>
